<svg width="16" height="17" viewBox="0 0 16 17" fill="none" xmlns="http://www.w3.org/2000/svg">
<line x1="0.5" y1="1.5" x2="0.5" y2="5.54" stroke="white" stroke-linecap="square"/>
<line x1="0.5" y1="0.5" x2="4.54" y2="0.5" stroke="white" stroke-linecap="square"/>
<line x1="14.5781" y1="14.5801" x2="14.5781" y2="10.5401" stroke="white" stroke-linecap="square"/>
<line x1="14.5781" y1="15.5801" x2="10.5381" y2="15.5801" stroke="white" stroke-linecap="square"/>
<line x1="0.5" y1="-0.5" x2="4.54" y2="-0.5" transform="matrix(4.37103e-08 1 1 -4.37103e-08 15.0781 1)" stroke="white" stroke-linecap="square"/>
<line x1="0.5" y1="-0.5" x2="4.54" y2="-0.5" transform="matrix(-1 0 0 1 15.0781 1)" stroke="white" stroke-linecap="square"/>
<line x1="0.5" y1="-0.5" x2="4.54" y2="-0.5" transform="matrix(-4.37103e-08 -1 -1 4.37103e-08 0 15.0801)" stroke="white" stroke-linecap="square"/>
<line x1="0.5" y1="-0.5" x2="4.54" y2="-0.5" transform="matrix(1 0 0 -1 0 15.0801)" stroke="white" stroke-linecap="square"/>
</svg>
